<?xml version="1.0" encoding="UTF-8"?><svg xmlns="http://www.w3.org/2000/svg" viewBox="0 0 42.79 37.06"><defs><style>.d{fill:#b0c73b;}.e{fill:#194422;}.f{fill:#b4c941;}.g{fill:#fff;}.h{fill:#becf48;}.i{fill:#a5c134;}.j{fill:#18592b;}.k{fill:#c2d24c;}.l{fill:#175b2c;}.m{fill:#aac337;}.n{fill:#cdd956;}.o{fill:#99ba2b;}.p{fill:#184d26;}.q{fill:#a5c033;}.r{fill:#1d4921;}.s{fill:#9bbb2c;}.t{fill:#194824;}.u{fill:#a1be31;}.v{fill:#b7cb42;}.w{fill:#194924;}.x{fill:#95b827;}.y{fill:#193f20;}.a`{fill:#cad652;}.aa{fill:#9dbc2e;}.ab{fill:#fdfdfd;}.ac{fill:#a9c336;}.ad{fill:#94b727;}.ae{fill:#b7cb41;}.af{fill:#8eb524;}.ag{fill:#165e2c;}.ah{fill:#bbcd45;}.ai{fill:#194f27;}.aj{fill:#bfd049;}.ak{fill:#98ba2a;}.al{fill:#c3d24d;}.am{fill:#195529;}.an{fill:#9dbc2d;}.ao{fill:#194b25;}.ap{fill:#c6d450;}.aq{fill:#a0be30;}.ar{fill:#b9cc43;}.as{fill:#8fb623;}.at{fill:#b0c73c;}.au{fill:#b4c93f;}.av{fill:#185228;}.aw{fill:#18572a;}.ax{fill:#c8d551;}</style></defs><g id="a"/><g id="b"><g id="c"><rect class="ab" width="42.79" height="37.06" rx="9.88" ry="9.88"/><g><path class="r" d="M21.34,22.62h-6.33s-.07,0-.11,0c-.07,0-.11,.02-.1,.09,0,.03,0,.07,0,.11,0,1.43,0,2.86,0,4.28,0,.78-.46,1.46-1.17,1.74-1.28,.5-2.55-.45-2.55-1.73,0-2.57,0-5.14,0-7.71,0-.38,0-.75,0-1.13,0-.86,.3-1.62,.89-2.24,.32-.34,.66-.67,1-1,2.02-2.02,4.04-4.04,6.06-6.06,.64-.64,1.41-.96,2.31-.96,.89,0,1.67,.32,2.3,.95,1.77,1.76,3.53,3.53,5.29,5.29,.57,.57,1.14,1.13,1.7,1.7,.64,.64,.96,1.42,.96,2.32,0,2.95,0,5.89,0,8.84,0,.87-.59,1.62-1.38,1.83-1.18,.31-2.34-.56-2.34-1.78,0-1.44,0-2.89,0-4.33,0-.23,.03-.2-.2-.2-2.12,0-4.24,0-6.36,0Z"/><path class="y" d="M11.6,13.98c-.23,.26-.49,.5-.74,.75-.8,.79-1.28,1.75-1.43,2.86-.04,.27-.05,.55-.05,.82,0,.5,0,.99,0,1.49,0,.08-.03,.13-.08,.18-.39,.39-.78,.78-1.17,1.17-2.07,2.07-4.13,4.13-6.2,6.2-.04,.04-.07,.09-.12,.12-.06-.18-.06-.36-.07-.54-.01-.19-.01-.39-.01-.59,0-5.3,0-10.59,0-15.89,0-1.97,.56-3.75,1.75-5.32,1.32-1.75,3.07-2.86,5.22-3.33,.46-.1,.93-.17,1.4-.16,.08-.02,.16-.01,.24-.01,.65,0,1.29,0,1.94,0,.08,.04,.05,.1,.03,.15-.03,.09-.07,.18-.11,.26-.63,1.54-1.04,3.13-1.21,4.79-.08,.72-.13,1.44-.11,2.16,.03,1.27,.17,2.53,.46,3.78,.08,.34,.16,.68,.27,1.01,.01,.03,.02,.07,0,.1Z"/><path class="af" d="M9.16,35.18c-.3-.02-.59-.09-.88-.17-2.81-.78-4.78-2.51-5.93-5.18-.12-.27-.11-.27,.09-.48,1.98-1.98,3.95-3.95,5.93-5.93,.04-.04,.09-.08,.13-.12,.02,0,.03-.02,.03-.03h0s.03-.02,.03-.03h0s.03-.02,.03-.03h0s.03-.02,.03-.03h0s.03-.02,.03-.03h0s.03-.02,.03-.03h0s.03-.02,.03-.03h0s.03-.02,.03-.03h0s.03-.02,.03-.03h0s.03-.02,.03-.03h0s.03-.02,.03-.03h0s.03-.02,.03-.03h0s.03-.02,.03-.03h0s.03-.02,.03-.03h0s.03-.02,.03-.03h0s.03-.02,.03-.03h0s.03-.01,.03-.03h0c.11,.05,.04,.13,.02,.18-.19,.4-.35,.81-.5,1.22-.36,.97-.59,1.97-.73,3-.1,.77-.12,1.54-.09,2.31,.05,1.08,.23,2.15,.54,3.19,.24,.79,.54,1.56,.91,2.3,.06,.13,.06,.13,0,.19Z"/><path class="af" d="M33.59,35.17h-.03c-.05-.07,0-.13,.02-.19,.36-.75,.68-1.52,.91-2.32,.23-.79,.38-1.59,.48-2.4,.05-.46,.08-.92,.08-1.38,0-.81-.07-1.61-.21-2.4-.21-1.2-.58-2.34-1.09-3.44-.03-.06-.11-.13,0-.2h0s.01,.03,.03,.03h0s.01,.03,.03,.03h0s.01,.03,.03,.03h0s.01,.03,.03,.03h0s.01,.03,.03,.03h0s.01,.03,.03,.03h0s.01,.03,.03,.03h0s.01,.03,.03,.03h0s.01,.03,.03,.03h0s.01,.03,.03,.03h0s.01,.03,.03,.03h0s.01,.03,.03,.03h0s.01,.03,.03,.03h0s.01,.03,.03,.03h0s.01,.03,.03,.03h0s.01,.03,.03,.03h0s.01,.03,.03,.03h0s.02,.03,.04,.03c.04,.04,.08,.07,.12,.11,1.98,1.98,3.95,3.96,5.93,5.93,.09,.09,.11,.15,.06,.27-1.06,2.58-2.91,4.31-5.55,5.19-.33,.11-.66,.19-1,.25-.04,0-.09,0-.13,.01-.04,.02-.09,0-.13,.02Z"/><path class="e" d="M11.6,13.98c-.07-.11-.1-.24-.14-.36-.13-.45-.22-.91-.32-1.37-.07-.35-.12-.69-.17-1.04-.03-.22-.05-.44-.08-.67-.02-.18,0-.36-.05-.53,0-.01,0-.03,0-.04,0-.51-.06-1.02-.03-1.53,.02-.21,0-.43,.03-.64,.03-.28,.04-.55,.08-.83,.03-.27,.06-.54,.1-.81,.04-.3,.11-.6,.17-.89,.16-.79,.38-1.56,.64-2.32,.13-.36,.27-.72,.42-1.07,.02-.04,.03-.07,.03-.11,.05-.04,.11-.02,.16-.02,.83,0,1.66,0,2.49,0,.1,.06,.03,.13,0,.19-.15,.3-.29,.6-.42,.91-.59,1.37-.96,2.8-1.13,4.29-.06,.51-.1,1.02-.11,1.53-.02,1.06,.09,2.11,.29,3.15,.01,.08,.05,.16,0,.23h0s-.02,.02-.03,.03h0s-.02,.02-.03,.03h0s-.02,.02-.03,.03h0s-.02,.02-.03,.03h0s-.02,.02-.03,.03h0s-.02,.02-.03,.03h0s-.02,.02-.03,.03h0s-.02,.02-.03,.03h0s-.02,.02-.03,.03h0s-.02,.02-.03,.03h0s-.02,.02-.03,.03h0s-.02,.02-.03,.03h0s-.02,.02-.03,.03h0s-.02,.02-.03,.03h0s-.02,.02-.03,.03h0s-.02,.02-.03,.03h0s-.02,.02-.03,.03h0s-.02,.02-.03,.03c-.02,.04-.06,.07-.09,.1-.41,.41-.82,.82-1.23,1.23-.03,.03-.06,.07-.1,.09Z"/><path class="ag" d="M29.59,12.47s-.05-.04-.08-.07c-1.45-1.45-2.91-2.91-4.36-4.36-.02-.02-.04-.05-.07-.08,.1-.04,.14,.05,.2,.1,.23,.23,.2,.21,.29-.08,.4-1.26,1.24-2.05,2.53-2.3,1.04-.2,1.99,.07,2.78,.79,.76,.69,1.1,1.56,1.05,2.56-.03,.71-.29,1.34-.75,1.9-.44,.54-1.01,.87-1.67,1.06-.04,.01-.08,.02-.12,.03-.09,.02-.09,.07-.03,.13,.06,.06,.12,.11,.17,.17,.03,.04,.09,.08,.05,.14Z"/><path class="aw" d="M14.97,1.74c-.89,0-1.78,0-2.68,0-.67,0-1.35,0-2.02,0-.06,0-.12,0-.18,0,.14-.03,.28-.02,.42-.02,7.23,0,14.46,0,21.69,0,.11,0,.23-.01,.34,.02-.05,.06-.12,.04-.18,.04-.3,0-.6,0-.93,0,.55,.21,1.04,.46,1.5,.78,1.16,.8,2.06,1.83,2.66,3.11,.04,.08,.09,.16,.06,.25-.06,.02-.1-.02-.15-.05-.63-.44-1.33-.73-2.09-.86-.11-.02-.22,0-.32-.06-.3,0-.44-.26-.62-.42-.83-.73-1.79-1.17-2.87-1.34-1.71-.27-3.25,.16-4.59,1.25-.7,.57-1.24,1.28-1.61,2.11-.03,.06-.03,.16-.15,.13-.21-.07-.42-.14-.63-.2-.48-.13-.96-.19-1.46-.17-.08,0-.17,0-.25,0,.01-.08,.08-.06,.13-.07,.1,0,.21,0,.32,0,.12,0,.18-.03,.22-.15,.29-.75,.7-1.43,1.21-2.05,.64-.78,1.41-1.41,2.3-1.89,.26-.14,.53-.26,.82-.38-1.36,0-2.7,0-4.05,0-.86,0-1.72,0-2.58,0-.68,0-1.36,0-2.04,0-.71,0-1.41,0-2.12,0-.06,0-.12,0-.17-.04Z"/><path class="j" d="M23.26,6.67c.06,0,.07-.04,.09-.09,.18-.44,.43-.85,.71-1.23,.08-.1,.17-.2,.25-.29,.08-.09,.15-.18,.24-.27,.45-.43,.94-.82,1.51-1.09,.42-.2,.84-.37,1.29-.47,.33-.08,.66-.15,1-.14,.09,0,.17-.04,.27-.03,.37,.02,.74,.05,1.11,.11,.55,.1,1.07,.28,1.57,.53,.43,.22,.84,.48,1.2,.81,.12,.11,.25,.22,.36,.34,.03,.04,.06,.04,.11,.04,.05,0,.1-.02,.14,.03-.09,.07-.19,.04-.29,.03-.1-.01-.21-.03-.31,0-.26,.06-.4,.24-.38,.51,.02,.22,.2,.37,.46,.39,.35,.02,.7,.05,1.04,.14,.06,.02,.13,.03,.17,.08,.08,.24,.21,.45,.3,.69,.32,.81,.46,1.66,.39,2.53-.1,1.27-.57,2.4-1.41,3.38-.45,.52-.97,.94-1.56,1.27-.24,.13-.23,.14-.05,.32,.14,.14,.29,.28,.42,.43,.04,.04,.11,.08,.07,.16-.36-.34-.71-.69-1.05-1.05-.18-.2-.37-.38-.56-.57-.12-.13-.12-.16,.04-.23,.41-.18,.79-.4,1.13-.68,.8-.67,1.34-1.51,1.54-2.53,.3-1.55-.1-2.91-1.2-4.04-.71-.73-1.58-1.16-2.59-1.28-1.29-.16-2.45,.18-3.46,1.01-.53,.44-.92,.98-1.21,1.61-.04,.1-.06,.23-.19,.27h0s-.04-.02-.05-.04h0s-.02-.02-.03-.03h0s-.02-.03-.04-.03h0s-.04-.02-.06-.04h0s-.02-.02-.04-.03h0s-.04-.01-.06-.03h0s-.02-.02-.04-.03h0s-.04-.01-.06-.03h0s-.02-.02-.04-.03h0s-.04-.02-.06-.03h0s-.02-.03-.04-.02h0s-.04-.02-.06-.03l-.6-.3Z"/><path class="l" d="M24.41,7.34c.08-.09,.13-.2,.17-.31,.06-.17,.16-.32,.25-.48,.21-.35,.46-.68,.77-.95,.28-.26,.58-.48,.92-.67,.4-.22,.83-.38,1.27-.47,.21-.04,.42-.08,.64-.08,.21,0,.42-.01,.63,0,.22,.01,.43,.06,.65,.11,.44,.1,.85,.27,1.24,.49,.2,.11,.39,.25,.58,.4,.17,.13,.32,.29,.47,.44,.4,.43,.7,.92,.91,1.46,.12,.32,.21,.65,.26,1,.05,.35,.05,.69,.01,1.04-.04,.34-.11,.67-.21,.99-.17,.51-.43,.99-.78,1.4-.37,.45-.8,.81-1.31,1.1-.17,.09-.34,.16-.51,.25-.08,.04-.08,.05-.02,.12,.16,.16,.33,.33,.49,.49,.04,.04,.09,.07,.09,.13-.24-.22-.47-.45-.69-.69-.01,0-.02-.02-.03-.03h0s-.02-.02-.03-.03h0s-.02-.02-.03-.03h0s-.02-.02-.03-.03h0s-.02-.02-.03-.03h0s-.02-.02-.03-.03h0s-.02-.02-.03-.03h0s-.02-.02-.03-.03h0s-.02-.02-.03-.03h0s-.02-.02-.03-.03h0s-.02-.02-.03-.03h0s-.02-.02-.03-.03h0s-.02-.02-.03-.03h0s-.02-.02-.03-.03h0s-.02-.02-.03-.03h0s-.02-.02-.03-.03h0s-.02-.02-.03-.03h0s-.02-.02-.03-.03h0s-.02-.02-.03-.03h0s-.02-.02-.03-.03h0s-.02-.02-.03-.03h0c0-.07-.06-.1-.09-.14-.08-.09-.18-.17-.26-.27,.04-.05,.09-.06,.15-.08,.41-.1,.8-.26,1.15-.5,.55-.39,.94-.9,1.17-1.53,.15-.41,.22-.84,.2-1.28-.02-.34-.1-.68-.23-1-.14-.37-.35-.69-.62-.98-.41-.44-.91-.74-1.49-.91-.39-.12-.79-.14-1.19-.11-.47,.04-.9,.18-1.31,.42-.31,.18-.57,.41-.81,.67-.14,.15-.25,.31-.34,.49-.15,.29-.29,.58-.36,.9,0,.04-.02,.08-.04,.11,0,.01-.02,.02-.04,.04-.09-.09-.18-.18-.27-.26-.04-.04-.07-.09-.13-.09-.12-.11-.23-.23-.35-.34-.1-.1-.21-.19-.32-.29Z"/><path class="ai" d="M34.04,20.71c-.24-.21-.45-.45-.68-.67-.05-.05-.04-.11-.04-.17,0-.53,0-1.06,0-1.59,0-.22-.03-.44-.03-.66-.04-.11,.01-.16,.1-.21,.67-.37,1.3-.81,1.87-1.33,.62-.57,1.16-1.2,1.62-1.91,.7-1.07,1.16-2.24,1.4-3.49,.15-.76,.21-1.53,.17-2.3-.07-1.24-.36-2.43-.88-3.57-.29-.64-.65-1.23-1.06-1.79-.03-.04-.06-.07-.07-.11-.01-.04-.03-.09,.05-.1h0s.04,.02,.06,.03h0s.04,.01,.06,.03h0s.02,.02,.04,.02h0s.04,.02,.06,.03h0s.04,.02,.06,.03h0s.02,.02,.04,.02h0s.04,.02,.06,.03h0s.04,.01,.06,.03h0s.02,.02,.04,.03h0s.04,.02,.06,.03h0s.02,.02,.04,.03h0s.04,.02,.06,.03h0s.02,.02,.04,.03h0s.04,.02,.06,.03h0s.02,.02,.04,.03h0s.04,.02,.06,.03h0s.02,.02,.04,.03h0s.06,.04,.09,.06h0s.02,.02,.04,.03h0s.04,.02,.05,.04h0s.02,.02,.03,.03h0s.02,.03,.04,.03h0s.04,.02,.05,.04h0l.03,.03h0s.02,.02,.04,.03h0s.02,.03,.04,.03h0s.04,.02,.05,.04h0s.02,.02,.03,.03h0s.02,.02,.03,.03h0s.02,.03,.04,.03h0s.04,.02,.05,.04h0s.02,.02,.03,.03h0s.02,.02,.03,.03h0s.02,.02,.03,.03h0s.02,.02,.03,.03h0s.02,.03,.04,.03h0s0,.03,.01,.04c.22,.36,.38,.74,.53,1.13,.34,.87,.54,1.76,.63,2.69,.06,.65,.06,1.31,.01,1.97-.06,.84-.23,1.67-.49,2.47-.44,1.31-1.1,2.49-2,3.54-.9,1.06-1.97,1.9-3.21,2.54-.03,.01-.06,.02-.08,.04-.07,.06-.08,.14-.04,.2,.04,.06,.1,0,.14-.02,.81-.39,1.54-.9,2.22-1.47,.85-.71,1.54-1.56,2.12-2.5,.8-1.29,1.3-2.69,1.52-4.2,.1-.71,.12-1.42,.08-2.13-.06-1.12-.3-2.21-.71-3.26-.04-.1-.11-.21-.02-.32,.17,.17,.32,.35,.45,.55,0,.02,0,.03,.02,.03,.22,.27,.41,.56,.58,.87-.07,.07-.05,.16-.03,.24,.1,.43,.18,.85,.22,1.29,.05,.57,.09,1.13,.06,1.71-.04,.8-.15,1.58-.35,2.36-.3,1.18-.79,2.29-1.44,3.32-.53,.83-1.16,1.58-1.89,2.25-.82,.75-1.72,1.37-2.73,1.84-.21,.1-.32,.21-.27,.44,0,.01,0,.03,0,.04-.04,.27,.04,.49,.27,.65,.1,.11,.22,.22,.32,.33,.04,.04,.1,.08,.06,.15Z"/><path class="av" d="M36.48,2.82c-.06,.05-.02,.08,.01,.13,.12,.17,.24,.33,.35,.5,.17,.26,.33,.53,.48,.81,.31,.56,.55,1.16,.74,1.77,.14,.44,.24,.88,.31,1.34,.04,.28,.07,.55,.09,.83,.04,.4,.03,.79,.02,1.18,0,.26-.04,.51-.08,.77-.06,.41-.13,.81-.24,1.21-.11,.43-.26,.85-.42,1.26-.27,.67-.62,1.29-1.03,1.87-.2,.29-.42,.56-.66,.83-.22,.25-.46,.49-.7,.72-.26,.25-.54,.48-.84,.7-.27,.19-.54,.38-.82,.55-.1,.06-.2,.12-.3,.17-.08,.04-.12,.08-.11,.17-.04-.18-.07-.36-.11-.54-.08-.35-.21-.69-.37-1.01-.02-.04-.05-.08-.06-.14-.04-.12,.06-.15,.13-.19,.24-.15,.47-.3,.69-.48,1.46-1.14,2.46-2.59,2.92-4.39,.05-.19,.1-.38,.13-.57,.01-.07,.03-.14,.11-.16,.01,0,.03,.01,.03,.02,.02,.03,.03,.07,.05,.09,.1,.17,.24,.26,.44,.26,.24,0,.42-.19,.44-.44,0-.09,0-.18,.02-.27,.06-.54,.06-1.08,.02-1.62-.04-.55-.13-1.08-.27-1.61-.37-1.41-1.03-2.66-2-3.75-.14-.16-.29-.31-.43-.46-.06-.06-.13-.12-.06-.22,.1,.01,.19,.06,.28,.09,.39,.14,.76,.31,1.13,.51,.03,.02,.07,.03,.1,.06Z"/><path class="t" d="M14.97,1.74h2.29c.04,.07,0,.12-.04,.18-.47,.78-.86,1.6-1.16,2.45-.33,.92-.55,1.87-.68,2.84-.11,.79-.09,1.58-.08,2.37,0,.18,.02,.36,.05,.54,0,.04,.01,.09,0,.13-.02,.02-.04,.05-.06,.07-.55,.55-1.1,1.1-1.65,1.65-.02,.02-.05,.04-.07,.06-.03-.2-.07-.39-.1-.59-.04-.26-.08-.51-.11-.77-.04-.27-.04-.54-.08-.8,0,0,0-.02,0-.03-.01-.47-.05-.94-.03-1.41,.02-.3,.03-.61,.06-.91,.07-.62,.16-1.23,.29-1.84,.14-.7,.34-1.38,.58-2.06,.13-.37,.28-.74,.44-1.1,.1-.23,.22-.46,.33-.69,.01-.03,.02-.07,.04-.1Z"/><path class="p" d="M33.65,20.26c-.1-.06-.17-.16-.25-.24-.05-.04-.05-.09-.05-.15,0-.19,0-.38,0-.57,0-.07,.02-.11,.09-.14,.61-.29,1.2-.61,1.75-1,.28-.2,.54-.4,.81-.62,.38-.31,.72-.66,1.06-1.01,.18-.19,.35-.4,.51-.61,.18-.22,.34-.45,.51-.68,.13-.19,.26-.39,.37-.6,.16-.27,.32-.54,.45-.83,.28-.61,.53-1.23,.71-1.88,.1-.36,.19-.71,.25-1.08,.04-.24,.08-.49,.11-.74,.03-.28,.04-.57,.06-.85,.02-.21,.04-.42,.02-.63-.03-.24,0-.48-.05-.72-.03-.19-.04-.38-.06-.58-.04-.31-.1-.61-.16-.91-.02-.09-.05-.18-.05-.28,0-.06,.03-.09,.09-.07h0s.02,.02,.02,.03h0v.02s.01,.03,.02,.04h0s.01,.04,.03,.06h0s0,.05,.03,.06h0s0,.05,.03,.06h0s0,.05,.03,.06h0s.01,.02,.02,.03c0,0,.01,0,0,.02,0,.02,.01,.03,.02,.04,0,0,.01,0,0,.02,0,.02,.01,.03,.02,.04,0,0,.01,0,0,.02,0,.02,.01,.03,.02,.04,0,0,.01,0,0,.02,.01,.02,0,.06,.03,.07h0s0,.05,.03,.06h0s0,.05,.03,.06c.17,.31,.28,.65,.39,.99,.27,.84,.4,1.71,.4,2.6,0,.23,0,.46,0,.69-.06,.07-.07,.17-.09,.25-.31,1.49-.87,2.88-1.69,4.17-.58,.91-1.26,1.75-2.06,2.48-.75,.69-1.57,1.29-2.48,1.77-.29,.16-.59,.3-.89,.44-.04,.02-.09,.05-.14,.03Z"/><path class="e" d="M38.46,25.13s-.04-.03-.06-.05c-.63-.63-1.25-1.25-1.88-1.88-.02-.02-.03-.04-.05-.06-.25-.28-.53-.53-.79-.8-.12-.12-.12-.16,.04-.24,.9-.47,1.74-1.04,2.52-1.68,.6-.49,1.16-1.02,1.67-1.61,.32-.37,.63-.75,.92-1.15,.04-.05,.07-.12,.15-.08,0,.04,0,.08,0,.12,0,1.34,0,2.69,0,4.03,0,.04,0,.08,0,.12-.47,.42-.94,.83-1.44,1.21-.54,.41-1.11,.79-1.69,1.15-.14,.08-.14,.09-.03,.21,.18,.18,.37,.37,.55,.55,.04,.04,.11,.08,.07,.16Z"/><path class="ao" d="M15.33,10.25c-.04-.1-.05-.21-.06-.32-.05-.58-.02-1.16-.03-1.74,0-.2,.02-.4,.05-.59,.02-.11,.02-.23,.03-.34,.03-.34,.1-.68,.16-1.01,.12-.6,.28-1.18,.48-1.76,.14-.4,.3-.78,.47-1.17,.09-.21,.19-.42,.3-.62,.15-.28,.3-.56,.47-.83,.02-.04,.05-.08,.05-.12,.68,0,1.36,0,2.04,0,.04,.08-.02,.12-.06,.17-.43,.58-.8,1.2-1.12,1.85-.58,1.19-.94,2.45-1.1,3.76-.04,.29-.04,.58-.08,.87-.01,.08,.04,.16,.01,.24h0s-.02,.02-.03,.03h0s-.02,.02-.03,.03h0s-.02,.02-.03,.03h0s-.02,.02-.03,.03h0s-.02,.02-.03,.03h0s-.02,.02-.03,.03h0s-.02,.02-.03,.03h0s-.02,.02-.03,.03h0s-.02,.02-.03,.03h0s-.02,.02-.03,.03h0s-.02,.02-.03,.03h0s-.02,.02-.03,.03h0s-.02,.02-.03,.03h0s-.02,.02-.03,.03h0s-.02,.02-.03,.03h0s-.02,.02-.03,.03h0s-.02,.02-.03,.03h0s-.02,.02-.03,.03h0s-.02,.02-.03,.03h0s-.02,.02-.03,.03h0s-.02,.02-.03,.03h0s-.02,.02-.03,.03h0s-.02,.02-.03,.03h0s-.02,.02-.03,.03c-.24,.27-.5,.51-.75,.76-.05,.05-.09,.11-.15,.14Z"/><path class="av" d="M21.92,1.74c.52,0,1.03,0,1.55,0,.8,0,1.6,0,2.4,0,.05,0,.09,0,.16,0-.1,.1-.22,.12-.32,.17-.34,.14-.66,.31-.97,.5-.33,.2-.64,.42-.93,.67-.27,.24-.53,.48-.77,.75-.28,.32-.54,.66-.77,1.01-.27,.41-.49,.85-.66,1.31-.04,.12-.04,.12-.17,.12-.13,0-.26,0-.39,0-.04,0-.09-.01-.13,.03-.27,.04-.53,.08-.79,.14-.31,.08-.6,.19-.89,.32-.04,.02-.08,.05-.12,.05-.05-.06-.03-.12-.02-.18,.26-1.11,.7-2.14,1.32-3.1,.39-.61,.85-1.17,1.37-1.69,.04-.04,.08-.08,.12-.11Z"/><path class="w" d="M40.98,17.59c-.07,0-.1,.06-.13,.11-.22,.3-.45,.6-.69,.88-.18,.22-.39,.42-.57,.64-.24,.3-.53,.54-.81,.8-.61,.56-1.27,1.06-1.97,1.5-.34,.22-.69,.42-1.05,.61-.05,.03-.11,.04-.14,.11,.02,.05,.06,.08,.1,.11,.22,.22,.45,.45,.67,.67,.04,.04,.09,.07,.09,.13-.1-.07-.17-.16-.26-.25-.3-.3-.61-.6-.91-.91-.03-.03-.07-.07-.1-.11-.22-.25-.47-.47-.7-.71-.14-.15-.14-.17,.04-.27,.62-.3,1.21-.64,1.78-1.04,.49-.35,.96-.72,1.41-1.12,1.08-.98,1.95-2.12,2.67-3.38,.15-.27,.28-.56,.42-.83,.03-.06,.05-.15,.15-.14,0,.04,0,.08,0,.12,0,.98,0,1.97,0,2.95,0,.04,0,.08,0,.12Z"/><path class="ad" d="M33.74,22.84s-.02,.07,0,.11c.17,.36,.33,.73,.46,1.1,.15,.41,.29,.83,.4,1.25,.09,.32,.16,.65,.22,.97,.04,.22,.07,.45,.11,.68,.03,.21,.06,.42,.09,.63,.01,.13,.03,.27,.03,.4,0,.32,.05,.64,.03,.96-.01,.25-.02,.51-.03,.76-.02,.38-.06,.75-.12,1.13-.08,.54-.19,1.08-.34,1.61-.15,.55-.34,1.1-.56,1.63-.14,.33-.28,.65-.44,.97-.02,.04-.05,.09-.04,.14-.18,.04-.35,.07-.53,.06-.11,.03-.23-.01-.34,.03-.05,0-.1,.01-.15,0-.09,.02-.18,0-.27,0-.06-.07,0-.12,.02-.18,.37-.65,.69-1.33,.94-2.04,.31-.88,.52-1.78,.64-2.7,.09-.69,.11-1.38,.08-2.07-.03-.73-.13-1.46-.3-2.17-.09-.38-.18-.75-.3-1.12-.02-.06-.02-.12-.02-.18,0-.74,0-1.47,0-2.21,0-.04-.05-.13,.05-.14,.13,.11,.25,.23,.36,.36Z"/><path class="ai" d="M21.92,1.74c0,.05-.04,.08-.07,.11-.2,.19-.38,.39-.56,.6-.34,.4-.65,.82-.93,1.26-.2,.32-.38,.66-.54,1-.2,.41-.37,.84-.5,1.28-.06,.22-.12,.44-.18,.66-.01,.05-.02,.11-.02,.16,0,0,0,0,0,.01-.59,.3-1.09,.72-1.55,1.2-.2,.21-.39,.41-.61,.6-.05-.11-.09-.21-.04-.33,.01-.03,0-.07,0-.1,0-.29,.05-.57,.08-.86,.06-.52,.17-1.02,.31-1.52,.13-.51,.3-1,.51-1.48,.13-.29,.26-.58,.4-.86,.3-.57,.64-1.12,1.03-1.63,.02-.03,.05-.05,.05-.09,.87,0,1.74,0,2.62,0Z"/><path class="x" d="M9.16,35.18c.05-.03,.01-.07,0-.1-.09-.19-.19-.39-.28-.58-.14-.31-.27-.63-.39-.96-.18-.48-.33-.97-.45-1.47-.09-.39-.18-.79-.23-1.18-.04-.26-.06-.51-.09-.77-.07-.54-.05-1.09-.06-1.63,0-.26,.02-.52,.04-.78,.05-.55,.13-1.1,.25-1.65,.12-.57,.28-1.13,.47-1.68,.13-.38,.28-.76,.45-1.13,.05-.11,.1-.23,.16-.34,.02-.04,.05-.08,0-.12,.1-.13,.22-.24,.34-.35,.04,.02,.03,.05,.03,.07,0,.76,0,1.51,0,2.27,0,.02,0,.04,0,.06-.26,.81-.45,1.64-.56,2.48-.08,.67-.12,1.34-.09,2.01,.05,1,.19,1.99,.47,2.96,.28,.97,.67,1.89,1.16,2.78,.04,.07,.09,.14,.02,.22-.08,0-.16,.01-.24,0-.05,0-.1,0-.15,0-.11-.04-.23,0-.34-.03-.17,0-.34-.02-.51-.06Z"/><path class="ao" d="M40.98,14.4c-.07,.03-.09,.09-.12,.15-.12,.23-.23,.47-.35,.7-.27,.51-.57,.99-.91,1.46-.21,.29-.44,.57-.65,.85-.07,.09-.14,.17-.22,.25-.21,.22-.41,.45-.63,.66-.25,.24-.51,.46-.77,.68-.45,.39-.93,.73-1.43,1.05-.23,.15-.48,.29-.72,.42-.22,.12-.44,.23-.66,.35-.1,.05-.1,.07-.02,.15,.21,.21,.42,.42,.63,.63,.04,.04,.09,.07,.09,.13-.14-.11-.25-.24-.37-.36-.27-.27-.54-.53-.8-.81,0-.06-.06-.09-.09-.13-.1-.11-.21-.2-.3-.31,.23-.11,.47-.22,.7-.34,.64-.33,1.24-.7,1.81-1.14,.28-.22,.56-.44,.83-.68,.31-.27,.59-.56,.87-.85,.33-.34,.61-.72,.89-1.1,.49-.66,.89-1.38,1.24-2.12,.15-.33,.29-.67,.41-1.01,.17-.48,.3-.96,.42-1.45,.03-.11,.05-.22,.07-.33,.01-.05,.02-.11,.09-.12,0,.04,0,.08,0,.12,0,1.01,0,2.03,0,3.04,0,.04,0,.08,0,.12Z"/><path class="aw" d="M31.96,14.85c0-.06-.05-.09-.09-.13-.19-.19-.38-.38-.56-.56-.09-.09-.08-.1,.03-.16,.38-.2,.73-.43,1.06-.7,.5-.42,.92-.91,1.25-1.48,.31-.53,.55-1.1,.68-1.7,.05-.22,.08-.44,.11-.66,.04-.34,.04-.67,.02-1-.02-.38-.09-.75-.2-1.11-.11-.37-.24-.73-.42-1.07-.03-.05-.06-.1-.03-.16,.01,0,.02,0,.03,0,.02,0,.03,0,.05,.01,.01,0,.02,0,.03,.01,.02,0,.03,.01,.05,.02h.03s.06,.02,.09,.03c.45,.15,.84,.4,1.19,.71,.1,.08,.21,.16,.29,.26,.04,.04,.1,.08,.04,.15-.05,0-.08-.04-.13-.02-.03,.04,0,.09,0,.13,.15,.64,.18,1.29,.14,1.94-.04,.66-.18,1.31-.41,1.93-.3,.8-.71,1.53-1.27,2.16-.5,.57-1.07,1.06-1.74,1.44-.05,.03-.1,.07-.16,.07-.04-.02-.07-.06-.09-.1Z"/><path class="av" d="M34.97,2.16c-.01,.08,.02,.13,.08,.18,.2,.18,.38,.38,.55,.59,.28,.33,.54,.68,.77,1.05,.25,.4,.47,.81,.66,1.24,.25,.56,.44,1.15,.57,1.75,.06,.28,.1,.57,.14,.85,.07,.5,.05,1,.06,1.49,0,.16-.04,.32-.04,.48,0,.01-.02,.02-.02,.04-.11-.14-.07-.32-.09-.48-.17-1.1-.63-2.06-1.41-2.85-.15-.16-.31-.31-.48-.45-.04-.03-.09-.06-.09-.13-.07-.14-.12-.28-.19-.42-.23-.46-.51-.89-.83-1.3-.25-.33-.54-.63-.85-.91-.46-.41-.95-.77-1.49-1.07-.29-.16-.6-.29-.91-.42-.02,0-.04,0-.05-.03,.02-.05,.07-.03,.1-.03,.31,0,.61,0,.92,0,.06,0,.12,0,.18,0,.08-.02,.15,0,.23,0,.09,.03,.19,0,.28,.02,.03,0,.05,0,.08,0,.07,.03,.15,0,.22,.03h.06s.11,0,.16,.03c0,0,.02,0,.02,0,.05,.03,.11,0,.16,.03h.05s.09,0,.12,.03c0,0,.02,0,.03,0,.04,.03,.09,0,.12,.03,.01,0,.02,0,.03,0,.03,.02,.07,0,.1,.02,0,0,.02,0,.02,0,.03,.03,.07,0,.1,.03h.02s.07,.01,.1,.03h.02s.07,.01,.1,.03c.14,.02,.28,.06,.41,.12Z"/><path class="ah" d="M16.51,27.33v-2.89s0-.02,0-.03c0-.06,.02-.1,.09-.09,.03,0,.07,0,.11,0,3.1,0,6.2,0,9.31,0,.21,0,.19-.02,.19,.2,0,.87,0,1.74,0,2.62,0,.06,0,.11,0,.17-.08-.01-.07-.08-.07-.13,0-.09,0-.18,0-.27,0-.77,0-1.53,0-2.3,0-.19,0-.2-.21-.2-.65,0-1.3,0-1.95,0-.25,0-.51,0-.76,0,2.16,.91,3.35,3.16,2.88,5.44-.45,2.18-2.46,3.93-4.95,3.82-2.17-.09-4.1-1.71-4.52-3.94-.42-2.22,.82-4.48,2.92-5.33-.26,.01-.53,0-.8,0-.64,.01-1.27,0-1.91,0-.22,0-.22,0-.22,.23,0,.76,0,1.51,0,2.27,0,.1,0,.2,0,.3,0,.05,0,.12-.07,.13Z"/><path class="am" d="M32.05,14.94s.05-.06,.09-.08c.36-.2,.68-.43,.99-.69,.28-.22,.53-.48,.76-.74,.31-.34,.57-.72,.8-1.12,.24-.43,.45-.88,.6-1.36,.12-.38,.2-.76,.26-1.15,.08-.48,.06-.96,.05-1.44,0-.31-.06-.61-.13-.91-.01-.06-.02-.12-.04-.17-.01-.05,0-.08,.04-.1,.04-.03,.06,.01,.09,.03,.03,.02,.05,.05,.09,.05,.07,0,.11,.05,.15,.1,.54,.65,.88,1.39,.96,2.24,.01,.13,.04,.27,.03,.4,0,.05,0,.11-.04,.15-.11,.06-.09,.19-.11,.28-.12,.57-.29,1.12-.52,1.65-.26,.6-.59,1.14-.98,1.66-.14,.18-.28,.36-.45,.52-.11,.1-.18,.22-.29,.32-.46,.43-.93,.84-1.48,1.16-.07,.04-.16,.07-.17,.17-.1-.16-.2-.32-.3-.48-.12-.18-.26-.34-.39-.51Z"/><path class="y" d="M38.46,25.13c0-.06-.05-.09-.09-.13-.2-.2-.4-.4-.61-.61-.1-.1-.1-.11,.02-.18,.32-.18,.62-.38,.92-.59,.42-.29,.84-.59,1.24-.92,.31-.26,.63-.51,.91-.8,.04-.04,.08-.06,.13-.06,0,.05,0,.1,0,.15,0,1.53,0,3.05,0,4.58,0,.29-.02,.57-.04,.85,0,.04-.01,.09-.02,.13-.05,.01-.06-.03-.08-.05-.78-.77-1.55-1.55-2.33-2.32-.02-.02-.04-.05-.06-.07Z"/><path class="o" d="M33.39,22.48s-.04,.08-.04,.12c0,.75,0,1.49,0,2.24,0,.03,0,.06,0,.09,.15,.29,.2,.61,.28,.93,.11,.39,.18,.79,.24,1.18,.03,.2,.05,.4,.07,.59,.07,.55,.06,1.11,.05,1.66,0,.24-.03,.49-.05,.73-.02,.24-.06,.48-.09,.72-.06,.42-.16,.83-.26,1.24-.14,.56-.32,1.1-.54,1.63-.22,.53-.46,1.04-.76,1.53-.02,.03-.04,.07-.04,.11-.15,.04-.29,.01-.44,.02-.18,0-.37,0-.55,0-.1-.04-.04-.11-.01-.16,.07-.13,.15-.25,.22-.37,.79-1.35,1.28-2.8,1.49-4.36,.07-.54,.1-1.08,.11-1.63,0-.11,0-.22-.02-.33,.07-.24,.15-.47,.19-.72,.03-.19,.05-.38,.05-.57,0-1.51,0-3.03,0-4.54,0-.05,0-.09,0-.14,0-.02,0-.04,.03-.03,.02,0,.03,.03,.04,.04Z"/><path class="d" d="M13.47,30.64c.17-.04,.35-.08,.52-.13,.23-.06,.44-.17,.65-.26,.13-.03,.12,.07,.14,.14,.08,.33,.19,.65,.32,.97,.3,.75,.73,1.42,1.27,2.02,.72,.8,1.6,1.37,2.6,1.76,.05,.02,.11,.03,.14,.07,.04,.05,.02,.07-.04,.07-.87,0-1.73,0-2.59,0-.03,0-.06,0-.08-.03-.95-.76-1.72-1.67-2.26-2.76-.27-.55-.5-1.11-.64-1.71-.01-.05-.04-.09-.01-.15Z"/><path class="at" d="M28.06,30.27c.25,.11,.5,.23,.77,.3,.13,.03,.25,.06,.38,.09-.02,.26-.11,.5-.19,.74-.34,1.01-.86,1.91-1.56,2.72-.35,.41-.76,.77-1.17,1.12-.04,.03-.08,.05-.12,.05-.83,0-1.67,0-2.5,0-.07,0-.08-.02-.04-.08,.04-.05,.1-.07,.15-.09,.95-.36,1.76-.92,2.46-1.65,.64-.67,1.12-1.44,1.43-2.3,.08-.23,.16-.46,.21-.7,.02-.07,.03-.15,.1-.19,.02,0,.05,0,.07,0Z"/><path class="au" d="M27.99,30.28c-.03,.06-.05,.12-.07,.18-.14,.58-.35,1.13-.64,1.66-.18,.33-.4,.64-.63,.94-.23,.28-.47,.54-.74,.79-.18,.17-.37,.32-.56,.46-.34,.25-.71,.47-1.09,.65-.15,.07-.31,.13-.47,.19-.07,.03-.14,.04-.19,.11-.04,.03-.08,.02-.12,.02-1.42,0-2.83,0-4.25,0-.04,0-.08,.01-.12-.02-.07-.09-.18-.09-.28-.13-.6-.24-1.15-.56-1.66-.95-.22-.17-.43-.34-.62-.54-.42-.44-.8-.92-1.11-1.46-.33-.58-.56-1.19-.72-1.83-.01-.06-.02-.11-.1-.11l.42-.27c.13-.03,.13,.07,.14,.14,.06,.29,.15,.57,.25,.85,.3,.82,.74,1.54,1.34,2.17,.6,.64,1.3,1.13,2.1,1.47,.6,.26,1.23,.41,1.89,.47,.92,.09,1.82-.03,2.69-.34,.79-.28,1.49-.71,2.11-1.27,.69-.64,1.23-1.39,1.59-2.25,.14-.35,.25-.71,.34-1.07,.01-.06,0-.15,.1-.16h0s.02,.02,.03,.03h0s.02,.02,.03,.03h0s.04,.01,.06,.03h0s.02,.02,.03,.03h0s.04,.01,.06,.03h0s.02,.02,.03,.03h0s.04,.02,.06,.03h0s.04,.01,.06,.03h0s.02,.02,.03,.03h0s.01,.01,0,.02c0,0,0,.01-.01,.01Z"/><path class="ah" d="M18.76,24.35h.84c-.01,.05-.06,.06-.09,.07-.26,.13-.52,.25-.77,.41-.16,.11-.33,.22-.47,.35-.1,.09-.22,.17-.31,.28-.29,.31-.56,.64-.77,1.01-.16,.28-.3,.57-.4,.89-.1,.33-.17,.66-.21,1.01-.03,.27-.03,.54-.02,.81,.02,.3,.07,.59,.15,.88,.16,.62,.44,1.19,.84,1.69,.33,.42,.72,.79,1.17,1.09,.55,.36,1.14,.59,1.78,.71,.39,.07,.79,.09,1.18,.06,.7-.05,1.37-.24,1.99-.59,.31-.18,.59-.38,.86-.62,.31-.27,.58-.58,.8-.92,.35-.52,.58-1.09,.7-1.7,.09-.45,.1-.9,.07-1.34-.03-.48-.15-.95-.34-1.4-.19-.46-.46-.88-.78-1.27-.39-.46-.84-.82-1.36-1.11-.18-.1-.37-.17-.55-.3h.81c.34,.17,.64,.39,.92,.64,.51,.46,.9,1,1.21,1.61,.05,.1,.08,.2,.12,.3,0,.09,0,.19,0,.28,0,.04,0,.08,.03,.11,.03,.3,.08,.59,.15,.87,0,.16,.04,.32,.04,.47,.02,1.27-.34,2.41-1.16,3.39-.79,.95-1.81,1.54-3.03,1.74-1.03,.17-2.03,.04-2.99-.42-.5-.24-.96-.55-1.35-.94-.81-.8-1.31-1.77-1.46-2.9-.06-.42-.05-.85-.01-1.27,0-.03,0-.06-.01-.09,.07-.28,.12-.56,.15-.84,.05-.06,.02-.13,.03-.2,0-.07,0-.15,0-.22,.45-1.11,1.2-1.95,2.22-2.56Z"/><path class="m" d="M26.22,35.26c.1-.14,.25-.23,.37-.34,.05-.04,.1-.08,.15-.13,.09-.09,.19-.16,.28-.25,.14-.15,.28-.29,.41-.44,.27-.32,.52-.65,.74-1.01,.2-.32,.38-.66,.53-1,.1-.22,.19-.45,.27-.68,.08-.22,.13-.45,.19-.67,0-.03,.01-.06,.04-.08,.41,.05,.82,.04,1.23-.02-.02,.3-.12,.59-.21,.87-.35,1.18-.93,2.24-1.71,3.2-.15,.19-.33,.35-.47,.55-.02,.02-.04,.03-.07,.03-.54,0-1.07,0-1.61,0-.05,0-.1,.02-.15-.02Z"/><path class="ak" d="M10.4,35.26c0-.06-.03-.12-.06-.17-.3-.54-.58-1.09-.8-1.66-.26-.7-.49-1.4-.62-2.14-.05-.28-.11-.57-.14-.85-.02-.14-.02-.28-.04-.42-.03-.19,0-.39-.05-.58-.01-.05,0-.1,0-.15,0-.21,0-.42,0-.63-.01-.28,.02-.56,.04-.84,.02-.29,.06-.58,.11-.87,.07-.46,.17-.92,.28-1.37,.06-.23,.14-.45,.21-.67,.01-.04,.03-.06,.06-.08,0,.05,0,.11,0,.16,0,.53,0,1.06,0,1.59,0,.34,0,.67,.03,1-.05,.48-.09,.96-.08,1.43,.05,1.68,.4,3.28,1.1,4.81,.19,.42,.42,.82,.64,1.22,.04,.06,.13,.14,.02,.22-.23-.01-.47,.03-.7-.02Z"/><path class="ac" d="M13.47,30.64c.07,.17,.1,.34,.15,.52,.08,.29,.19,.58,.31,.85,.24,.52,.49,1.02,.83,1.49,.31,.43,.65,.83,1.03,1.2,.16,.15,.33,.29,.5,.42,.05,.04,.11,.07,.12,.15-.04,.03-.1,.02-.15,.02-.47,0-.95,0-1.42,0-.07,0-.1-.04-.13-.08-1.18-1.23-1.96-2.69-2.35-4.35-.02-.09-.07-.16-.1-.24,.33,.05,.65,.07,.98,.05,.06-.03,.13,0,.19-.02h.03Z"/><path class="f" d="M27.48,29.88s.03,.01,.03,.03c-.24,1.22-.76,2.29-1.62,3.2-.53,.55-1.11,1.01-1.8,1.34-.84,.4-1.72,.62-2.65,.63-.85,0-1.67-.12-2.45-.45-1.42-.6-2.51-1.58-3.21-2.96-.25-.49-.44-1.01-.55-1.55-.01-.07-.05-.13-.09-.19,.07-.08,.16-.14,.24-.21,.01,0,.02-.02,.03-.03h0s.02-.02,.03-.03h0s.03-.01,.04-.01c.07,.03,.08,.1,.09,.16,.2,1.11,.66,2.1,1.42,2.94,.74,.82,1.65,1.39,2.71,1.71,.54,.16,1.09,.25,1.64,.24,.8,0,1.57-.17,2.31-.48,1.17-.5,2.06-1.31,2.72-2.4,.35-.58,.57-1.2,.71-1.86,.02-.1,0-.21,.11-.28,.02,0,.03,0,.04,.01h0s.02,.02,.03,.03h0s.02,.02,.03,.03h0s.02,.02,.03,.03h0s.02,.02,.03,.03h0s.04,.01,.05,.04h0s.02,.02,.03,.03h0s.02,.02,.03,.03Z"/><path class="ai" d="M38.76,4.64c-.02,.11,.01,.21,.05,.31,.22,.57,.4,1.15,.52,1.75,.05,.27,.1,.55,.14,.82,.02,.16,.03,.33,.04,.49,.05,.47,.02,.93,.02,1.39,0,.2-.03,.41-.05,.61-.02,.17-.04,.34-.06,.5-.04,.34-.11,.67-.2,.99-.16,.64-.38,1.25-.65,1.85-.25,.56-.55,1.09-.89,1.59-.24,.35-.5,.69-.78,1.02-.2,.23-.39,.46-.61,.66-.29,.27-.59,.54-.91,.78-.28,.21-.57,.42-.87,.61-.33,.22-.69,.41-1.05,.58-.1,.05-.11,.04-.13-.07-.02-.14,.03-.22,.17-.28,.53-.26,1.04-.58,1.51-.94,.27-.21,.54-.43,.79-.66,.14-.13,.29-.26,.42-.4,.25-.27,.5-.55,.74-.85,.28-.36,.54-.73,.77-1.12,.23-.38,.43-.78,.61-1.19,.13-.3,.25-.61,.35-.92,.15-.46,.27-.94,.35-1.42,.06-.34,.1-.68,.13-1.02,.04-.52,.03-1.03,.02-1.54,0-.32-.05-.63-.1-.95-.06-.36-.13-.73-.22-1.08-.13-.5-.3-.99-.51-1.47-.09-.2-.19-.4-.28-.6-.02-.04-.05-.08-.05-.13,.01,0,.02-.01,.04,0h0s.04,.02,.05,.04h0s.02,.02,.03,.03c.22,.19,.43,.39,.61,.62Z"/><path class="an" d="M33.07,28.44c.05,.06,.06,.13,.06,.21,.02,.35-.03,.69-.04,1.03,0,.23-.05,.46-.07,.7-.07,.57-.2,1.12-.34,1.66-.09,.33-.2,.65-.31,.97-.14,.38-.3,.74-.48,1.1-.17,.35-.37,.69-.58,1.01-.03,.05-.06,.09-.07,.15-.18,.04-.37,.01-.55,.02-.12,0-.25,0-.37,0-.12-.05-.03-.12,0-.16,.13-.21,.27-.41,.4-.62,.77-1.26,1.25-2.63,1.47-4.09,.04-.25,.07-.49,.08-.75,.17-.19,.34-.38,.48-.6,.13-.2,.23-.42,.34-.63Z"/><path class="i" d="M12.27,30.61c.09,.03,.11,.11,.13,.2,.11,.48,.26,.95,.44,1.41,.14,.37,.33,.73,.52,1.08,.22,.41,.48,.79,.77,1.16,.19,.24,.39,.48,.61,.7,.03,.03,.07,.06,.07,.11-.08,.04-.17,.02-.25,.02-.33,0-.67,0-1,0-.05,0-.08-.04-.11-.07-.93-1.19-1.6-2.5-1.96-3.97-.06-.23-.11-.47-.14-.71-.01-.08-.03-.16,.03-.23,.24,.09,.48,.2,.73,.26,.06,.01,.12,.01,.17,.05Z"/><path class="q" d="M28.02,35.26c0-.06,.02-.09,.06-.13,.32-.32,.59-.69,.86-1.06,.27-.37,.5-.77,.7-1.18,.21-.42,.38-.85,.51-1.29,.08-.27,.17-.54,.22-.82,0-.05,.04-.09,.06-.14,.23-.06,.46-.12,.68-.21,.09-.04,.19-.08,.29-.12,.06,.07,.04,.15,.03,.23-.2,1.14-.57,2.22-1.14,3.23-.28,.5-.59,.97-.94,1.43-.03,.04-.06,.1-.13,.1-.35,0-.7,0-1.04,0-.05,0-.1,.02-.14-.02Z"/><path class="aq" d="M29.26,35.26c.03-.13,.14-.21,.21-.3,.28-.38,.54-.78,.77-1.19,.35-.63,.63-1.28,.84-1.96,.12-.39,.21-.79,.29-1.19,.02-.1,.03-.21,.03-.31,.31-.18,.6-.39,.87-.64,.05,.07,.04,.16,.03,.23-.06,.45-.12,.9-.22,1.34-.1,.41-.21,.81-.35,1.21-.26,.72-.57,1.42-.97,2.07-.14,.22-.29,.44-.43,.66-.02,.03-.04,.05-.04,.08-.15,.04-.3,.02-.44,.02-.19,0-.39,.02-.58-.02Z"/><path class="aa" d="M9.8,28.79c.16,.24,.31,.49,.51,.7,.07,.08,.14,.15,.21,.23,.02,.03,.05,.06,.05,.11,.02,.71,.18,1.4,.38,2.07,.33,1.14,.84,2.2,1.54,3.17,.04,.06,.13,.13,.02,.21-.26,0-.52,0-.79,0-.09-.03-.1-.13-.15-.2-.71-1.08-1.19-2.25-1.5-3.5-.15-.61-.25-1.22-.29-1.85-.02-.22,0-.44-.04-.66-.01-.1,0-.2,.06-.28Z"/><path class="u" d="M12.54,35.26c.01-.07-.04-.11-.07-.16-.24-.33-.45-.67-.65-1.02-.33-.58-.58-1.19-.8-1.82-.14-.41-.26-.83-.34-1.26-.05-.29-.1-.58-.14-.87-.02-.14,.01-.28-.02-.41,.21,.17,.41,.34,.65,.47,.06,.04,.13,.08,.19,.11-.01,.19,.03,.37,.07,.55,.12,.59,.29,1.16,.51,1.72,.17,.42,.36,.82,.58,1.21,.25,.44,.54,.85,.83,1.26,.05,.07,.13,.12,.14,.22-.28,.04-.57,0-.85,.02-.04,0-.08,.01-.11-.02Z"/><path class="ar" d="M16.35,28.17s.07,0,.06,.04c-.06,.29-.02,.58-.03,.87,0,.38,.07,.75,.17,1.12,.16,.54,.39,1.05,.72,1.51,.19,.26,.39,.52,.63,.74,.41,.38,.87,.7,1.39,.93,.39,.17,.79,.31,1.21,.37,.21,.03,.42,.06,.64,.05,.08,0,.15,.05,.22,.03,.16-.04,.32-.01,.48-.03,.24-.03,.48-.07,.72-.13,.58-.15,1.12-.39,1.61-.73,.32-.22,.61-.47,.87-.76,.4-.45,.72-.94,.93-1.51,.13-.33,.22-.67,.28-1.02,.02-.13,.05-.25,.04-.39,0-.12,.03-.24,.03-.36,0-.23-.04-.46-.04-.69,0-.03,0-.04,.04-.05,0,0,0,.01,0,.02,.01,.02,0,.05,.02,.07,0,0,0,.02,0,.02,.01,.02,0,.05,.03,.07,0,0,0,.01,0,.02,.01,.02,0,.05,.03,.07h0s.01,.04,.03,.06c0,0,0,.01,0,.02,.01,.02,0,.05,.03,.07h0s0,.04,.03,.06c.07,.11,.12,.22,.18,.33-.11,.14-.08,.32-.11,.48-.15,1.09-.57,2.04-1.3,2.87-.8,.91-1.8,1.46-2.97,1.69-1.28,.25-2.5,.03-3.62-.63-1.47-.87-2.32-2.17-2.59-3.85-.02-.15-.05-.3-.04-.45,0-.06,0-.12-.05-.17,.03-.09,.08-.16,.13-.24,.02-.02,0-.04,.03-.06h0s.01-.05,.03-.06c.02-.02,.01-.04,.03-.06h0s.02-.05,.03-.07c0,0,0-.02,0-.02,.02-.02,.01-.04,.03-.06h0s0-.06,.03-.09h0s0-.07,.03-.09h0Z"/><path class="s" d="M9.8,28.79c-.05,.25-.01,.5,0,.74,.02,.34,.05,.67,.11,1.01,.06,.39,.13,.78,.23,1.17,.11,.42,.25,.82,.4,1.22,.15,.39,.31,.78,.5,1.15,.17,.34,.36,.68,.58,1,.04,.05,.08,.11,.07,.18-.19,.03-.38,.03-.57,0,0-.04-.01-.07-.04-.11-.2-.34-.4-.68-.57-1.04-.31-.64-.56-1.3-.76-1.98-.11-.39-.21-.79-.28-1.19-.05-.24-.08-.49-.1-.74-.03-.31-.05-.63-.07-.94,0-.18-.03-.36-.02-.54,.02-.28,0-.57,.05-.85,.02-.1-.02-.2,.07-.28l.07,.33c.07,.3,.19,.59,.32,.87Z"/><path class="v" d="M15.75,29.31c.05-.09,.11-.17,.17-.24,.08,0,.07,.07,.08,.12,.06,.7,.24,1.37,.54,2,.21,.45,.49,.85,.83,1.21,.41,.43,.86,.83,1.39,1.12,.61,.33,1.25,.55,1.93,.63,1.52,.18,2.88-.22,4.06-1.19,1.16-.96,1.79-2.2,1.94-3.69,0-.06-.02-.15,.1-.13h0s.02,.02,.03,.03h0s.01,.05,.04,.06h0s.02,.02,.03,.03h0s.02,.02,.03,.03h0s.02,.05,.02,.07c.03,.2-.03,.39-.07,.58-.2,.99-.64,1.86-1.3,2.62-.4,.46-.87,.83-1.39,1.14-.69,.41-1.44,.64-2.24,.74-1.03,.12-2-.08-2.94-.5-.58-.26-1.11-.61-1.56-1.06-.83-.82-1.36-1.81-1.6-2.96-.04-.19-.08-.38-.09-.58v-.02Z"/><path class="ar" d="M26.79,29.13c-.06,0-.06,.05-.06,.1-.02,.4-.1,.8-.23,1.18-.11,.32-.22,.63-.38,.93-.16,.29-.34,.57-.55,.83-.15,.18-.3,.36-.47,.52-.45,.42-.94,.79-1.51,1.04-.45,.2-.92,.35-1.41,.42-.21,.03-.42,.05-.64,.06-.2,.01-.41,0-.61,0-.22,0-.44-.06-.66-.1-.45-.09-.88-.24-1.29-.44-.36-.17-.69-.39-.99-.64-.26-.21-.49-.45-.72-.7-.24-.26-.43-.55-.61-.85-.17-.29-.3-.61-.41-.93-.1-.29-.18-.59-.22-.9-.02-.18-.07-.35-.06-.53,0-.03-.01-.05-.04-.06,0-.02,.01-.04,.04-.06,.02-.01,.01-.04,.03-.06h0s.02-.02,.03-.04h0c.06-.02,.09-.02,.09,.06,0,.13,0,.27,.02,.4,.03,.29,.09,.58,.17,.86,.1,.35,.23,.68,.39,1,.23,.44,.5,.84,.85,1.19,.25,.25,.5,.5,.8,.7,.32,.22,.66,.4,1.01,.54,.35,.14,.71,.26,1.09,.32,.22,.04,.44,.08,.67,.07,.29,0,.58,0,.87-.03,.39-.05,.77-.14,1.14-.28,.44-.16,.85-.37,1.23-.64,.15-.11,.3-.23,.44-.36,.09-.09,.2-.16,.29-.26,.32-.35,.6-.71,.83-1.13,.25-.45,.41-.92,.54-1.41,.06-.26,.1-.52,.11-.78,0-.09,.01-.17,.12-.19,.04,.04,.08,.09,.09,.15Z"/><path class="au" d="M15.15,29.91c.1,0,.11,.09,.12,.15,.03,.14,.06,.27,.09,.41,.1,.33,.21,.66,.36,.97,.19,.39,.4,.77,.67,1.12,.32,.42,.69,.8,1.11,1.13,.43,.36,.92,.63,1.42,.85,.42,.19,.87,.31,1.33,.4,.54,.1,1.07,.1,1.61,.08,.37-.01,.74-.08,1.1-.18,.43-.12,.84-.27,1.23-.48,.39-.2,.75-.43,1.09-.71,.29-.24,.56-.51,.81-.8,.41-.46,.73-.99,.97-1.56,.14-.34,.26-.68,.35-1.03,.02-.07,.04-.15,.05-.22,0-.05,.02-.1,.07-.13,.03,.01,.06,.03,.08,.06-.09,.15-.1,.33-.15,.5-.15,.52-.35,1.02-.62,1.49-.15,.26-.32,.51-.5,.75-.03,.04-.07,.07-.1,.11-.22,.28-.48,.54-.75,.77-.24,.21-.49,.41-.76,.57-.44,.27-.91,.51-1.41,.66-.37,.11-.75,.2-1.13,.26-.41,.06-.82,.07-1.22,.05-.3-.01-.6-.06-.9-.12-.35-.08-.7-.18-1.03-.31-.31-.12-.6-.28-.89-.44-.27-.15-.52-.33-.76-.53-.3-.25-.59-.53-.84-.83-.16-.19-.31-.38-.45-.58-.08-.12-.16-.24-.23-.37-.29-.54-.53-1.1-.67-1.7-.02-.07-.03-.15-.05-.22,0-.05-.04-.08-.09-.08,.02-.03,.05-.05,.08-.06Z"/><path class="f" d="M11.12,35.26h5.29c.9,0,1.8,0,2.71,0,.38,0,.76,0,1.14,0,1.11,0,2.23,0,3.34,0,.87,0,1.74,0,2.62,0,.6,0,1.2,0,1.8,0h4.52c-.12,.04-.24,.03-.36,.03-4.23,0-8.47,0-12.7,0-2.99,0-5.98,0-8.97,0-.12,0-.24,.01-.36-.02h.97Z"/><path class="o" d="M32.68,35.27c.11-.06,.22-.02,.34-.03-.11,.04-.22,.03-.34,.03Z"/><path class="ak" d="M9.67,35.24c.11,.01,.23-.03,.34,.03-.11,0-.23,.01-.34-.03Z"/><path class="aw" d="M33.06,1.76c-.09,0-.19,.03-.28-.02,.1,0,.19,0,.28,.02Z"/><path class="aw" d="M33.35,1.8c-.07,0-.15,.03-.22-.03,.07,0,.15,0,.22,.03Z"/><path class="d" d="M13.44,30.64c-.06,.05-.12,.02-.19,.02,.06-.03,.12-.03,.19-.02Z"/><path class="aw" d="M33.56,1.83c-.05,0-.11,.02-.16-.02,.05,0,.11,0,.16,.02Z"/><path class="aw" d="M33.75,1.85c-.05,0-.11,.02-.16-.03,.06,0,.11,0,.16,.03Z"/><path class="ai" d="M39.24,5.22s0,.04-.03,.04c0,0-.02,0-.02-.02-.01-.03,0-.04,.02-.06,.02,0,.02,.01,.02,.03Z"/><path class="av" d="M37.38,3.39s-.08-.02-.09-.06c.04,.01,.07,.03,.09,.06Z"/><path class="aw" d="M34.07,1.92s-.09,.01-.12-.03c.04,0,.09,0,.12,.03Z"/><path class="aw" d="M33.92,1.89s-.09,.01-.12-.03c.04,0,.09,0,.12,.03Z"/><path class="ad" d="M33.59,35.17s.08-.02,.13-.02c-.04,.03-.08,.03-.13,.02Z"/><path class="ar" d="M27.03,29.43s.06,.05,.07,.08h-.02s-.07-.02-.06-.06v-.02Z"/><path class="aw" d="M34.32,1.97s-.08,.01-.1-.03c.04,0,.07,0,.1,.03Z"/><path class="ah" d="M16.35,28.17s0,.07-.03,.09c0-.03,0-.07,.03-.09Z"/><path class="aw" d="M34.56,2.04s-.07,.01-.1-.03c.04,0,.07,0,.1,.03Z"/><path class="aw" d="M34.44,2s-.08,.01-.1-.03c.04,0,.07,0,.1,.03Z"/><path class="aw" d="M34.2,1.94s-.07,.01-.1-.02c.04,0,.07,0,.1,.02Z"/><path class="ah" d="M16.32,28.26s0,.07-.03,.09c0-.03,0-.07,.03-.09Z"/><path class="av" d="M36.53,2.85s-.05,0-.06-.03c.03,0,.05,0,.06,.03Z"/><path class="av" d="M36.59,2.88s-.05,0-.06-.03c.03,0,.04,.01,.06,.03Z"/><path class="ai" d="M40.18,6.79s-.03-.04-.03-.06c.03,.01,.03,.04,.03,.06Z"/><path class="av" d="M36.69,2.94s-.05,0-.06-.04c.02,0,.05,.01,.06,.04Z"/><path class="av" d="M36.74,2.97s-.05,0-.06-.03c.03,0,.05,.01,.06,.03Z"/><path class="ai" d="M40.2,6.85s-.03-.04-.03-.06c.02,.01,.03,.04,.03,.06Z"/><path class="av" d="M36.84,3.03s-.05,0-.06-.04c.02,0,.05,.01,.06,.04Z"/><path class="av" d="M36.89,3.06s-.05,0-.06-.03c.02,0,.04,.01,.06,.03Z"/><path class="l" d="M23.87,6.97s.05,0,.06,.04c-.03,0-.05-.01-.06-.04Z"/><path class="av" d="M36.98,3.12s-.05,0-.06-.04c.02,0,.05,.01,.06,.04Z"/><path class="ar" d="M27.42,29.83s-.05-.01-.05-.04c.02,0,.04,.02,.05,.04Z"/><path class="av" d="M37.07,3.18s-.05,0-.06-.04c.02,0,.05,.01,.06,.04Z"/><path class="l" d="M23.96,7.03s.05,0,.06,.04c-.02,0-.05-.01-.06-.04Z"/><path class="av" d="M37.16,3.24s-.05,0-.06-.04c.02,0,.05,.01,.06,.04Z"/><path class="au" d="M27.72,30.06s-.05,0-.06-.04c.03,0,.05,.01,.06,.04Z"/><path class="av" d="M37.25,3.3s-.05,0-.06-.04c.02,0,.04,.01,.06,.04Z"/><path class="l" d="M24.06,7.09s.05,0,.06,.04c-.02,0-.04-.01-.06-.04Z"/><path class="au" d="M27.81,30.13s-.05,0-.06-.03c.02,0,.05,.01,.06,.03Z"/><path class="av" d="M37.46,3.45s-.05,0-.05-.04c.02,0,.04,.02,.05,.04Z"/><path class="l" d="M24.15,7.15s.05,0,.06,.04c-.02,0-.04-.01-.06-.04Z"/><path class="au" d="M27.9,30.18s-.05,0-.06-.03c.03,0,.05,.01,.06,.03Z"/><path class="av" d="M37.58,3.54s-.05-.01-.05-.04c.02,0,.04,.02,.05,.04Z"/><path class="l" d="M24.23,7.21s.05,0,.06,.04c-.02,0-.04-.02-.06-.04Z"/><path class="au" d="M27.96,30.22s-.05,0-.06-.03c.02,0,.04,.01,.06,.03Z"/><path class="au" d="M27.99,30.28v-.03s.05,0,.06,.03h-.06Z"/><path class="av" d="M37.73,3.66s-.05,0-.05-.04c.02,0,.04,.02,.05,.04Z"/><path class="l" d="M24.36,7.3s.05,0,.05,.04c-.02,0-.04-.02-.05-.04Z"/><path class="ah" d="M26.4,28.35s-.03-.04-.03-.07c.02,.02,.03,.04,.03,.07Z"/><path class="ah" d="M26.37,28.26s-.03-.04-.02-.07c.02,.02,.03,.04,.02,.07Z"/><path class="av" d="M37.88,3.78s-.05-.01-.05-.04c.02,0,.04,.02,.05,.04Z"/><path class="ah" d="M16.29,28.35s0,.05-.03,.06c0-.02,0-.05,.03-.06Z"/><path class="ah" d="M26.43,28.44s-.03-.04-.03-.07c.02,.02,.03,.04,.03,.07Z"/><path class="ah" d="M16.26,28.43s0,.05-.03,.07c0-.03,0-.05,.03-.07Z"/><path class="ah" d="M26.46,28.5s-.03-.04-.03-.06c.02,.01,.03,.04,.03,.06Z"/><path class="ah" d="M16.23,28.5s0,.05-.03,.06c0-.03,0-.05,.03-.06Z"/><path class="ah" d="M26.49,28.59s-.03-.04-.03-.07c.02,.02,.03,.04,.03,.07Z"/><path class="av" d="M38.12,3.99s-.05-.01-.05-.04c.02,0,.04,.02,.05,.04Z"/><path class="ah" d="M16.2,28.56s0,.05-.03,.06c0-.02,0-.05,.03-.06Z"/><path class="ah" d="M26.52,28.65s-.03-.04-.03-.06c.02,.01,.03,.04,.03,.06Z"/><path class="ah" d="M16.18,28.62s0,.05-.03,.06c0-.02,0-.04,.03-.06Z"/><path class="ai" d="M39.9,6.25s-.03-.03-.03-.06c.02,.01,.03,.03,.03,.06Z"/><path class="ai" d="M39.93,6.31s-.03-.03-.03-.06c.02,.01,.03,.04,.03,.06Z"/><path class="ai" d="M39.97,6.37s-.04-.03-.03-.06c.02,.01,.03,.04,.03,.06Z"/><path class="ai" d="M40,6.43s-.04-.03-.03-.06c.03,.01,.03,.04,.03,.06Z"/><path class="ar" d="M16,28.96s0,.05-.03,.06c0-.02,.01-.04,.03-.06Z"/><path class="ar" d="M26.86,29.22s-.03-.03-.04-.06c.02,.01,.03,.03,.04,.06Z"/><path class="ar" d="M26.91,29.34v-.06s.03,.03,.04,.05v.02s-.03,0-.04,0Z"/><path class="v" d="M15.66,29.43s.02-.04,.04-.05v.02s0,.04-.01,.05c-.01,0-.02,0-.03-.01Z"/><path class="ai" d="M40.15,6.73s-.04-.04-.03-.07c.03,.02,.03,.04,.03,.07Z"/><path class="av" d="M36.63,2.91s-.03,0-.04-.02c.02,0,.03,0,.04,.02Z"/><path class="av" d="M36.78,2.99s-.03,0-.04-.02c.02,0,.03,0,.04,.02Z"/><path class="av" d="M36.93,3.09l-.04-.02s.03,0,.04,.02Z"/><path class="av" d="M37.02,3.15s-.03-.01-.04-.03c.02,0,.03,0,.04,.03Z"/><path class="av" d="M37.11,3.21s-.03-.01-.04-.03c.02,0,.03,0,.04,.03Z"/><path class="av" d="M37.2,3.27s-.03-.01-.04-.03c.02,0,.03,0,.04,.03Z"/><path class="av" d="M37.29,3.33l-.04-.03s.03,0,.04,.03Z"/><path class="av" d="M37.41,3.42s-.03-.01-.04-.03c.02,0,.03,0,.04,.03Z"/><path class="av" d="M37.5,3.48l-.03-.03s.03,0,.03,.03Z"/><path class="av" d="M37.53,3.51s-.03-.01-.04-.03c.02,0,.03,0,.04,.03Z"/><path class="av" d="M37.62,3.57l-.03-.03s.03,0,.03,.03Z"/><path class="av" d="M37.65,3.6s-.03-.01-.04-.03c.02,0,.03,.01,.04,.03Z"/><path class="av" d="M37.68,3.63s-.03-.01-.04-.03c.02,0,.03,.01,.04,.03Z"/><path class="av" d="M37.77,3.69l-.03-.03s.03,.01,.03,.03Z"/><path class="av" d="M37.8,3.72s-.03-.01-.03-.03c.02,0,.03,.01,.03,.03Z"/><path class="av" d="M37.83,3.75s-.03-.01-.04-.03c.02,0,.03,.01,.04,.03Z"/><path class="av" d="M37.91,3.81l-.03-.03s.03,0,.03,.03Z"/><path class="av" d="M37.95,3.84l-.03-.03s.03,.01,.03,.03Z"/><path class="av" d="M37.98,3.87l-.03-.03s.03,.01,.03,.03Z"/><path class="av" d="M38.01,3.9s-.03-.01-.03-.03c.02,0,.03,.01,.03,.03Z"/><path class="av" d="M38.04,3.93s-.03-.01-.04-.03c.02,0,.03,.01,.04,.03Z"/><path class="av" d="M38.07,3.95h-.04v-.03s.03,.01,.04,.03Z"/><path class="av" d="M38.15,4.02l-.03-.03s.03,0,.03,.03Z"/><path class="ai" d="M39.84,6.13l-.02-.04s.02,.02,.02,.04Z"/><path class="ai" d="M39.87,6.19s-.02-.03-.03-.04c.02,0,.03,.02,.03,.04Z"/><path class="ai" d="M40.02,6.46s-.02-.02-.02-.04c.02,0,.02,.02,.02,.04Z"/><path class="ai" d="M40.05,6.52s-.02-.02-.02-.04c.02,0,.02,.02,.02,.04Z"/><path class="ai" d="M40.08,6.58s-.02-.02-.02-.04c.02,0,.02,.02,.02,.04Z"/><path class="ai" d="M40.11,6.64s-.02-.02-.02-.04c.02,0,.02,.02,.02,.04Z"/><path class="l" d="M23.92,7.01s.03,0,.04,.02c-.02,0-.03,0-.04-.02Z"/><path class="l" d="M24.02,7.06l.04,.02s-.03,0-.04-.02Z"/><path class="l" d="M24.11,7.12l.04,.03s-.03,0-.04-.03Z"/><path class="l" d="M24.2,7.18l.04,.03s-.03,0-.04-.03Z"/><path class="l" d="M24.29,7.25s.03,.01,.04,.03c-.02,0-.03,0-.04-.03Z"/><path class="l" d="M24.32,7.27l.03,.03s-.03,0-.03-.03Z"/><path class="t" d="M13.05,12.53l.03-.03s-.01,.03-.03,.03Z"/><path class="x" d="M9.02,22.78s-.02,.03-.03,.03c0-.02,.01-.03,.03-.03Z"/><path class="ag" d="M29.59,12.47l.03,.03s-.03-.01-.03-.03Z"/><path class="x" d="M8.99,22.81s-.02,.03-.03,.03c0-.02,.01-.03,.03-.03Z"/><path class="x" d="M8.96,22.84s-.02,.03-.03,.03c0-.02,.01-.03,.03-.03Z"/><path class="t" d="M13.08,12.5l.03-.03s-.01,.03-.03,.03Z"/><path class="ad" d="M33.77,22.87s-.03-.01-.03-.03c.02,0,.03,.01,.03,.03Z"/><path class="x" d="M8.93,22.87s-.02,.03-.03,.03c0-.02,.01-.03,.03-.03Z"/><path class="ad" d="M33.8,22.9s-.03-.01-.03-.03c.02,0,.03,.01,.03,.03Z"/><path class="x" d="M8.9,22.9s-.02,.03-.03,.03c0-.02,.01-.03,.03-.03Z"/><path class="ad" d="M33.83,22.93s-.03-.01-.03-.03c.02,0,.03,.01,.03,.03Z"/><path class="x" d="M8.86,22.93s-.02,.03-.03,.03c0-.02,.01-.03,.03-.03Z"/><path class="ad" d="M33.86,22.96s-.03-.01-.03-.03c.02,0,.03,.01,.03,.03Z"/><path class="x" d="M8.83,22.96s-.02,.03-.03,.03c0-.02,.01-.03,.03-.03Z"/><path class="ad" d="M33.89,22.99s-.03-.01-.03-.03c.02,0,.03,.01,.03,.03Z"/><path class="x" d="M8.8,22.99s-.02,.03-.03,.03c0-.02,.01-.03,.03-.03Z"/><path class="ad" d="M33.92,23.02s-.03-.01-.03-.03c.02,0,.03,.01,.03,.03Z"/><path class="x" d="M8.77,23.02s-.02,.03-.03,.03c0-.02,.01-.03,.03-.03Z"/><path class="ad" d="M33.95,23.05s-.03-.01-.03-.03c.02,0,.03,.01,.03,.03Z"/><path class="x" d="M8.74,23.05s-.02,.03-.03,.03c0-.02,.01-.03,.03-.03Z"/><path class="ad" d="M33.98,23.08s-.03-.01-.03-.03c.02,0,.03,.01,.03,.03Z"/><path class="x" d="M8.71,23.08s-.02,.03-.03,.03c0-.02,.01-.03,.03-.03Z"/><path class="ad" d="M34.01,23.11s-.03-.01-.03-.03c.02,0,.03,.01,.03,.03Z"/><path class="x" d="M8.68,23.11s-.02,.03-.03,.03c0-.02,.01-.03,.03-.03Z"/><path class="ad" d="M34.04,23.14s-.03-.01-.03-.03c.02,0,.03,.01,.03,.03Z"/><path class="x" d="M8.65,23.14s-.02,.03-.03,.03c0-.02,.01-.03,.03-.03Z"/><path class="ad" d="M34.07,23.17s-.03-.01-.03-.03c.02,0,.03,.01,.03,.03Z"/><path class="x" d="M8.62,23.17s-.02,.03-.03,.03c0-.02,.01-.03,.03-.03Z"/><path class="ad" d="M34.1,23.2s-.03-.01-.03-.03c.02,0,.03,.01,.03,.03Z"/><path class="x" d="M8.59,23.2s-.02,.03-.03,.03c0-.02,.01-.03,.03-.03Z"/><path class="ad" d="M34.13,23.23s-.03-.01-.03-.03c.02,0,.03,.01,.03,.03Z"/><path class="x" d="M8.56,23.23s-.02,.03-.03,.03c0-.02,.01-.03,.03-.03Z"/><path class="ad" d="M34.16,23.26s-.03-.01-.03-.03c.02,0,.03,.01,.03,.03Z"/><path class="x" d="M8.53,23.26s-.02,.03-.03,.03c0-.02,.02-.03,.03-.03Z"/><path class="ad" d="M34.19,23.29s-.03-.01-.03-.03c.02,0,.03,.01,.03,.03Z"/><path class="ad" d="M34.22,23.32s-.03-.01-.03-.03c.02,0,.03,.01,.03,.03Z"/><path class="ad" d="M34.25,23.35s-.03-.01-.03-.03c.02,0,.03,.01,.03,.03Z"/><path class="ad" d="M34.29,23.39s-.03-.01-.04-.03c.02,0,.03,.02,.04,.03Z"/><path class="t" d="M13.11,12.47l.03-.03s-.01,.03-.03,.03Z"/><path class="t" d="M13.14,12.44l.03-.03s-.01,.03-.03,.03Z"/><path class="t" d="M13.17,12.41l.03-.03s-.01,.03-.03,.03Z"/><path class="t" d="M13.2,12.38l.03-.03s-.01,.03-.03,.03Z"/><path class="t" d="M13.23,12.35l.03-.03s-.01,.03-.03,.03Z"/><path class="t" d="M13.26,12.32l.03-.03s-.01,.03-.03,.03Z"/><path class="t" d="M13.29,12.29l.03-.03s-.01,.03-.03,.03Z"/><path class="t" d="M13.32,12.26l.03-.03s-.01,.03-.03,.03Z"/><path class="t" d="M13.35,12.23l.03-.03s-.01,.03-.03,.03Z"/><path class="t" d="M13.38,12.2l.03-.03s-.01,.03-.03,.03Z"/><path class="t" d="M13.41,12.17l.03-.03s-.01,.03-.03,.03Z"/><path class="t" d="M13.44,12.14l.03-.03s-.01,.03-.03,.03Z"/><path class="t" d="M13.47,12.11l.03-.03s-.01,.03-.03,.03Z"/><path class="t" d="M13.5,12.08l.03-.03s-.01,.03-.03,.03Z"/><path class="t" d="M13.53,12.05l.03-.03s-.01,.03-.03,.03Z"/><path class="ai" d="M16.23,9.35l.03-.03s-.01,.03-.03,.03Z"/><path class="ag" d="M29.83,12.71l.03,.03s-.03-.01-.03-.03Z"/><path class="ai" d="M16.26,9.32l.03-.03s-.01,.03-.03,.03Z"/><path class="ai" d="M16.29,9.29l.03-.03s-.01,.03-.03,.03Z"/><path class="ag" d="M29.86,12.74l.03,.03s-.03-.01-.03-.03Z"/><path class="ag" d="M29.89,12.77l.03,.03s-.03-.01-.03-.03Z"/><path class="ag" d="M29.92,12.8l.03,.03s-.03-.01-.03-.03Z"/><path class="ag" d="M29.95,12.83l.03,.03s-.03-.01-.03-.03Z"/><path class="ai" d="M16.32,9.26l.03-.03s-.01,.03-.03,.03Z"/><path class="ag" d="M29.98,12.86l.03,.03s-.03-.01-.03-.03Z"/><path class="ag" d="M30.01,12.89l.03,.03s-.03-.01-.03-.03Z"/><path class="ag" d="M30.04,12.92l.03,.03s-.03-.01-.03-.03Z"/><path class="ag" d="M30.07,12.95l.03,.03s-.03-.01-.03-.03Z"/><path class="ag" d="M30.1,12.98l.03,.03s-.03-.01-.03-.03Z"/><path class="ai" d="M16.35,9.23l.03-.03s-.01,.03-.03,.03Z"/><path class="ar" d="M16.02,28.92l-.03,.03s0-.03,.03-.03Z"/><path class="ag" d="M30.13,13.01l.03,.03s-.03-.01-.03-.03Z"/><path class="ai" d="M16.39,9.2l.03-.03s-.01,.03-.03,.03Z"/><path class="ai" d="M16.42,9.17l.03-.03s-.01,.03-.03,.03Z"/><path class="ar" d="M26.82,29.16l-.03-.03s.03,.02,.03,.03Z"/><path class="ag" d="M30.16,13.04l.03,.03s-.03-.01-.03-.03Z"/><path class="ar" d="M26.88,29.25s-.03-.02-.03-.03c.02,0,.03,.02,.03,.03Z"/><path class="ar" d="M26.91,29.28l-.03-.03s.02,.02,.03,.03Z"/><path class="ag" d="M30.19,13.07l.03,.03s-.02-.01-.03-.03Z"/><path class="v" d="M15.72,29.34s.01-.03,.03-.03h0s0,.03-.01,.04h-.02Z"/><path class="v" d="M15.7,29.37s.01-.03,.03-.03h0s0,.04-.03,.03h0Z"/><path class="ai" d="M16.45,9.14l.03-.03s-.01,.03-.03,.03Z"/><path class="ar" d="M26.95,29.34l.03,.03h-.02s-.02-.01-.01-.03h0Z"/><path class="ag" d="M29.77,12.65l.03,.03s-.03-.01-.03-.03Z"/><path class="ar" d="M26.97,29.37s.03,.02,.03,.03h-.02s-.02-.01-.01-.03h0Z"/><path class="ar" d="M27,29.4s.03,.02,.03,.03h0s-.03,0-.03-.03h0Z"/><path class="v" d="M15.63,29.46l.03-.03h0s0,.04-.02,.04h-.02Z"/><path class="ai" d="M16.48,9.11l.03-.03s-.01,.03-.03,.03Z"/><path class="v" d="M15.6,29.49l.03-.03h0s0,.03-.02,.04h-.02Z"/><path class="v" d="M15.57,29.52s.01-.03,.03-.03h0s0,.03-.01,.04h-.02Z"/><path class="v" d="M15.54,29.55s.01-.03,.03-.03h0s0,.03-.01,.04h-.02Z"/><path class="ar" d="M27.1,29.52l.03,.03h-.02s-.02,0-.02-.02h0Z"/><path class="v" d="M15.51,29.58s.01-.03,.03-.03h0s0,.03-.01,.04h-.02Z"/><path class="ar" d="M27.13,29.55l.03,.03h-.02s-.02,0-.02-.02h0Z"/><path class="v" d="M15.48,29.61s.01-.03,.03-.03h0s0,.03-.01,.04h-.02Z"/><path class="ar" d="M27.16,29.58s.03,.02,.03,.03h-.02s-.02-.01-.02-.03h0Z"/><path class="ag" d="M29.8,12.68l.03,.03s-.03-.01-.03-.03Z"/><path class="ar" d="M27.18,29.61l.03,.03h-.02s-.02,0-.02-.02h0Z"/><path class="v" d="M15.45,29.64l-.03,.03s.02-.03,.03-.03Z"/><path class="ar" d="M27.24,29.67h-.03s-.01,0,0-.02c0,0,0-.01,0-.01h0s.03,0,.03,.03Z"/><path class="v" d="M15.42,29.67l-.03,.03s.02-.03,.03-.03Z"/><path class="ai" d="M16.51,9.08l.03-.03s-.01,.03-.03,.03Z"/><path class="ar" d="M27.27,29.7s-.03-.02-.03-.03c.02,0,.03,.01,.03,.03Z"/><path class="ai" d="M16.54,9.05l.03-.03s-.01,.03-.03,.03Z"/><path class="ar" d="M27.31,29.73s-.03-.01-.03-.03c.02,0,.03,.01,.03,.03Z"/><path class="ai" d="M16.57,9.02l.03-.03s-.01,.03-.03,.03Z"/><path class="ar" d="M27.34,29.76s-.03-.01-.03-.03c.02,0,.03,.01,.03,.03Z"/><path class="ar" d="M27.37,29.79s-.03-.01-.03-.03c.02,0,.03,.01,.03,.03Z"/><path class="ag" d="M29.74,12.62l.03,.03s-.03-.01-.03-.03Z"/><path class="ar" d="M27.45,29.85l-.03-.03s.02,.01,.03,.03Z"/><path class="ar" d="M27.48,29.88l-.03-.03s.03,.01,.03,.03Z"/><path class="ai" d="M16.6,8.99l.03-.03s-.01,.03-.03,.03Z"/><path class="ai" d="M16.63,8.96l.03-.03s-.01,.03-.03,.03Z"/><path class="au" d="M27.63,30l-.03-.03s.03,.01,.03,.03Z"/><path class="au" d="M27.67,30.03s-.03-.01-.03-.03c.02,0,.03,.01,.03,.03Z"/><path class="ag" d="M29.71,12.59l.03,.03s-.03-.01-.03-.03Z"/><path class="au" d="M27.76,30.09l-.03-.03s.03,.01,.03,.03Z"/><path class="ag" d="M29.68,12.56l.03,.03s-.03-.01-.03-.03Z"/><path class="au" d="M27.85,30.15l-.03-.03s.03,0,.03,.03Z"/><path class="ag" d="M29.65,12.53l.03,.03s-.03-.01-.03-.03Z"/><path class="t" d="M13.02,12.56l.03-.03s-.01,.03-.03,.03Z"/><path class="au" d="M28,30.24l-.03-.03s.03,0,.03,.03Z"/><path class="ai" d="M16.66,8.93l.03-.03s-.01,.03-.03,.03Z"/><path class="ag" d="M29.62,12.5l.03,.03s-.03-.01-.03-.03Z"/><path class="ai" d="M16.69,8.9l.03-.03s-.01,.03-.03,.03Z"/><path class="ai" d="M16.72,8.87l.03-.03s-.01,.03-.03,.03Z"/><path class="ai" d="M16.75,8.84l.03-.03s-.01,.03-.03,.03Z"/><path class="ai" d="M16.78,8.8l.03-.03s-.01,.03-.03,.03Z"/><path class="ai" d="M16.81,8.77l.03-.03s-.01,.03-.03,.03Z"/><path class="ai" d="M16.84,8.74l.03-.03s-.01,.03-.03,.03Z"/><path class="ai" d="M16.87,8.71l.03-.03s-.01,.03-.03,.03Z"/><path class="ai" d="M16.9,8.68l.03-.03s-.01,.03-.03,.03Z"/><path class="ai" d="M16.93,8.65l.03-.03s-.01,.03-.03,.03Z"/><path class="v" d="M15.48,29.64h-.03s.01-.03,.03-.03h0s0,.02,0,.02c0,0,0,0,0,0Z"/><path class="g" d="M21.34,18.9h-6.31s-.06,0-.09,0c-.13,0-.12,0-.13-.13-.03-.22,.06-.38,.22-.53,1.42-1.41,2.84-2.83,4.26-4.25,.66-.66,1.31-1.31,1.97-1.96,.02-.02,.04-.04,.06-.06,.03-.03,.06-.03,.09,0,.03,.03,.06,.06,.08,.09,2.1,2.1,4.19,4.2,6.29,6.29,.09,.09,.13,.18,.12,.3,0,.06,0,.13,0,.2,0,.05-.02,.07-.07,.07-.04,0-.08,0-.12,0-2.12,0-4.24,0-6.36,0Z"/><path class="g" d="M36.74,10.16c.01-1.06-.32-1.99-1-2.8-.03-.03-.06-.06-.09-.09-.28-.33-.61-.59-.98-.8-.19-.11-.38-.22-.59-.28-.02-.03-.07,0-.09-.03h0s-.05,0-.06-.02h-.02s-.05-.02-.07-.03h-.02c-.26-.11-.54-.15-.82-.18-.15-.02-.3-.02-.45-.03-.24-.01-.44-.19-.46-.43-.03-.25,.12-.47,.36-.54,.12-.03,.24-.02,.36-.01,.1,0,.21,.02,.31,.02,.28,.05,.55,.09,.82,.16,.59,.16,1.13,.42,1.63,.77,.03,.02,.06,.05,.1,.06,.2,.17,.4,.33,.58,.52,.79,.81,1.28,1.78,1.44,2.91,.02,.16,.04,.32,.06,.48,0,.07,0,.15,0,.22,0,.24-.13,.43-.34,.49-.23,.07-.45-.01-.59-.22-.01-.02-.02-.03-.03-.05-.03-.03,0-.07-.03-.09,0,0,0-.02,0-.03Z"/><path class="ai" d="M39.8,8.54v.65h-.02v-.65h.02Z"/><path class="ai" d="M39.78,8.07v.02s-.02-.01-.02-.02c0,0,0-.01,.01-.02v.02Z"/><path class="ai" d="M39.78,9.66v.02s-.02-.01-.02-.02c0,0,0-.01,.01-.02v.02Z"/><path class="am" d="M36.74,10.18s.03,.06,.03,.09c-.04-.02-.03-.06-.03-.09Z"/><path class="j" d="M33.98,6.15s.07,0,.09,.03c-.03,0-.07,0-.09-.03Z"/><path class="j" d="M33.83,6.1s.05,0,.07,.02c-.03,0-.05,0-.07-.02Z"/><path class="j" d="M33.92,6.13s.05,0,.06,.02c-.03,0-.05,0-.06-.02Z"/><path class="h" d="M21.33,24.43c1.32,.03,2.43,.51,3.31,1.48,.8,.89,1.17,1.94,1.12,3.13-.1,2.23-1.94,4.27-4.56,4.2-2.32-.06-4.31-1.93-4.27-4.52,.02-1.22,.51-2.27,1.41-3.1,.85-.79,1.86-1.16,2.99-1.19Z"/><path class="ae" d="M26.16,26.91s-.05-.04-.07-.08c-.2-.48-.49-.91-.82-1.31-.16-.19-.34-.37-.52-.54-.21-.2-.46-.35-.7-.51-.05-.03-.12-.06-.15-.12h2.08s.05,0,.07,0c.07,0,.1,.03,.1,.1,0,.03,0,.07,0,.1,0,.78,0,1.57,0,2.35Z"/><path class="ae" d="M18.76,24.35s-.06,.07-.11,.1c-.43,.26-.8,.58-1.13,.95-.24,.26-.46,.55-.63,.87-.11,.19-.22,.38-.3,.59,0,.02-.03,.04-.05,.05v-2.38s0-.05,0-.07c0-.07,.03-.1,.1-.1,.02,0,.05,0,.07,0h2.05Z"/><path class="ae" d="M15.48,29.64v-.03l.03-.03,.03-.03,.03-.03,.03-.03,.03-.03,.03-.03s.03-.04,.03-.06l.03-.03,.03-.03c.05,.06,.05,.14,.06,.21,.08,.59,.24,1.15,.5,1.68,.2,.42,.44,.81,.73,1.17,.19,.23,.39,.45,.63,.64,.27,.22,.54,.43,.84,.6,.47,.28,.97,.5,1.5,.62,.25,.06,.5,.12,.76,.15,.27,.03,.55,.06,.82,.03,.69-.06,1.36-.2,1.99-.48,.46-.2,.89-.46,1.28-.77,.27-.21,.51-.45,.73-.71,.31-.37,.57-.77,.79-1.2,.21-.42,.35-.86,.45-1.31,.04-.2,.09-.4,.09-.6h.03l.03,.03,.03,.03,.03,.03s.02,.07,.06,.09l.03,.03,.03,.03,.03,.03,.03,.03v.03c-.07,.09-.06,.2-.08,.3-.09,.44-.23,.87-.41,1.28-.12,.28-.27,.55-.44,.8-.19,.28-.4,.56-.64,.81-.34,.35-.7,.66-1.1,.92-.37,.24-.76,.43-1.17,.58-.39,.14-.78,.24-1.19,.3-.36,.05-.71,.09-1.07,.07-.7-.05-1.4-.18-2.04-.47-.49-.21-.95-.48-1.37-.82-.25-.21-.5-.42-.71-.66-.26-.3-.5-.62-.7-.97-.21-.36-.38-.75-.52-1.15-.1-.29-.17-.58-.21-.88,0-.05-.02-.1-.06-.13Z"/><path class="as" d="M24.21,17.19h-5.7s.02-.06,.04-.08c.9-.9,1.81-1.81,2.71-2.71,.08-.08,.09-.08,.16,0,.91,.91,1.82,1.82,2.73,2.73,.01,.01,.03,.03,.06,.07Z"/><path class="aj" d="M21.78,24.95c.65,0,1.59,.39,2.34,1.15,.79,.8,1.18,1.78,1.14,2.91-.08,1.98-1.72,3.8-4.05,3.72-2.03-.06-3.81-1.71-3.76-4.01,.05-2.05,1.72-3.76,4.33-3.77Z"/><path class="k" d="M21.38,32.23c-.45,.02-.86-.05-1.25-.21-.34-.14-.66-.32-.95-.56-.5-.41-.83-.93-1.05-1.52-.12-.31-.17-.64-.17-.98,0-.34,.02-.68,.11-1.01,.09-.32,.23-.63,.41-.91,.17-.27,.37-.51,.61-.72,.45-.39,.96-.68,1.56-.79,.17-.03,.33-.05,.5-.06,.42-.04,.84,.02,1.24,.13,.38,.11,.72,.3,1.03,.53,.56,.42,.95,.97,1.18,1.62,.09,.27,.17,.54,.16,.83,0,.08,.04,.16,.03,.24-.03,.42-.08,.83-.23,1.23-.14,.36-.33,.69-.57,.98-.16,.19-.34,.37-.54,.52-.45,.33-.94,.56-1.5,.65-.19,.03-.39,.05-.55,.03Z"/><path class="al" d="M21.57,31.82c-1.09,0-1.81-.32-2.4-.94-.59-.63-.85-1.37-.8-2.23,.05-.79,.38-1.45,.95-1.98,.57-.54,1.25-.8,2.02-.8,.75,0,1.41,.24,1.98,.75,.67,.6,1.02,1.34,1.02,2.23,0,.76-.26,1.43-.78,2-.6,.64-1.33,.98-1.99,.97Z"/><path class="ap" d="M21.34,31.36c-1.33,.05-2.61-1.16-2.52-2.66,.08-1.3,1.14-2.39,2.53-2.39,1.44,0,2.53,1.1,2.54,2.51,.02,1.39-1.14,2.55-2.55,2.53Z"/><path class="ax" d="M23.39,28.83c-.02,1.14-.91,2.05-2.04,2.04-1.16,0-2.03-.88-2.04-2.03,0-1.09,.88-2.06,2.12-2.02,1.07,.03,1.93,.88,1.96,2.01Z"/><path class="a`" d="M19.63,28.83c-.02-.96,.77-1.73,1.73-1.71,1,.02,1.71,.72,1.72,1.72,0,.93-.7,1.7-1.73,1.71-.95,0-1.74-.73-1.72-1.73Z"/><path class="n" d="M22.31,28.85c-.03,.54-.45,.94-.95,.93-.59,0-.96-.41-.96-.94,0-.52,.4-.94,.97-.94,.5,0,.93,.45,.94,.95Z"/></g></g></g></svg>