<?xml version="1.0" encoding="utf-8"?>
<!-- Generator: Adobe Illustrator 26.1.0, SVG Export Plug-In . SVG Version: 6.00 Build 0)  -->
<svg version="1.1" id="Capa_1" xmlns="http://www.w3.org/2000/svg" xmlns:xlink="http://www.w3.org/1999/xlink" x="0px" y="0px"
	 viewBox="0 0 16.7 34.8" style="enable-background:new 0 0 16.7 34.8;" xml:space="preserve">
<style type="text/css">
	.st0{fill:#EF5124;}
	.st1{fill:#EF5226;}
</style>
<g>
	<path class="st0" d="M7.6,16c0-0.7,0-1.3,0-2c0-0.3-0.1-0.4-0.4-0.5C4.5,12.6,2.7,10,2.8,7c0-2.8,2-5.3,4.6-6.1
		c4.5-1.4,8.8,2.2,8.5,6.9c-0.2,2.6-2,4.9-4.5,5.8c-0.2,0.1-0.3,0.2-0.3,0.4c0,1,0,2,0,3.1c0,0.2-0.1,0.3-0.2,0.4
		c-1,0.4-1.9,0.7-2.9,1.1c-0.3,0.1-0.3,0-0.3-0.2C7.6,17.5,7.6,16.8,7.6,16z M9.4,4C7.5,4,6,5.5,6,7.3c0,1.9,1.5,3.4,3.3,3.4
		c1.8,0,3.3-1.5,3.3-3.3C12.7,5.5,11.2,4,9.4,4z"/>
	<path class="st0" d="M11,24c0,0.1,0,0.1,0,0.2c0,1.4,0,2.8,0,4.2c0,0.2,0,0.3-0.2,0.3c-2.1,0.8-4.3,1.6-6.4,2.5
		c-0.1,0.1-0.2,0-0.4,0c-0.9-0.3-1.7-0.7-2.6-1c-0.1-0.1-0.2-0.1-0.2-0.3c0-0.7,0-1.3,0-2c0-0.1,0-0.2,0.2-0.3
		c3.2-1.2,6.3-2.4,9.5-3.5C10.9,23.9,11,24,11,24z"/>
	<path class="st0" d="M11,20.6c0,0.7,0,1.4,0,2.1c0,0.2-0.1,0.3-0.2,0.4c-2.1,0.8-4.1,1.6-6.2,2.4c-0.1,0.1-0.3,0.1-0.4,0
		c-0.9-0.4-1.8-0.7-2.7-1.1c-0.2-0.1-0.2-0.2-0.2-0.4c0-0.6,0-1.2,0-1.8c0-0.2,0.1-0.3,0.2-0.3c3.1-1.2,6.2-2.4,9.3-3.6
		c0.2-0.1,0.3,0,0.3,0.2C11,19.2,11,19.9,11,20.6z"/>
	<path class="st1" d="M5.4,31.7c1.9-0.7,3.6-1.4,5.4-2.1c0.2-0.1,0.2,0,0.2,0.2c0,1.4,0,2.9,0,4.4C9.1,33.3,7.3,32.5,5.4,31.7z"/>
</g>
</svg>
